<?xml version="1.0" encoding="utf-8"?>
<?xml-stylesheet type="text/xsl" href="rss1.xsl"?>
<rss version="2.0" xmlns:atom="http://www.w3.org/2005/Atom" xmlns:content="http://purl.org/rss/1.0/modules/content/" xmlns:dc="http://purl.org/dc/elements/1.1/" xmlns:media="http://search.yahoo.com/mrss/">
<channel>
 <title>Getty</title>
 <link>http://www.gettyimg.com/</link>
 <atom:link href="http://www.gettyimg.com/" rel="self" type="application/rss+xml" />

 
                <item>
                <title><![CDATA[【UPSCALED】The Wanted - Glad You Came (4K HEVC - FLAC AI Upscale)]]></title>
                <link><![CDATA[https://sharemania.us/threads/the-wanted-glad-you-came-4k-hevc-flac-ai-upscale.241069/]]></link>
                <description><![CDATA[<article>
<blockquote class="messageText SelectQuoteContainer ugc baseHtml">
<img src="https://images2.imgbox.com/fd/bb/tFHcZ9Jf_o.jpg" class="bbCodeImage LbImage" alt="[​IMG]" data-url="https://images2.imgbox.com/fd/bb/tFHcZ9Jf_o.jpg" style=""><br>
<img src="https://images2.imgbox.com/6c/cb/l8Bpp0ls_o.jpg" class="bbCodeImage LbImage" alt="[​IMG]" data-url="https://images2.imgbox.com/6c/cb/l8Bpp0ls_o.jpg" style=""><br>
<img src="https://images2.imgbox.com/96/6a/THXVLaCH_o.jpg" class="bbCodeImage LbImage" alt="[​IMG]" data-url="https://images2.imgbox.com/96/6a/THXVLaCH_o.jpg" style=""><img src="https://images2.imgbox.com/65/d7/ybO0zlwz_o.jpg" class="bbCodeImage LbImage" alt="[​IMG]" data-url="https://images2.imgbox.com/65/d7/ybO0zlwz_o.jpg" style=""><br>
<div class="ToggleTriggerAnchor bbCodeSpoilerContainer">
<button type="button" class="button bbCodeSpoilerButton ToggleTrigger Tooltip JsOnly" data-target="> .SpoilerTarget"><span>Spoiler: <span class="SpoilerTitle">MediaInfo</span></span></button>
<div class="SpoilerTarget bbCodeSpoilerText">
<div class="bbCodeBlock bbCodeCode">
<div class="type">Code:</div>
<pre>Format                      : Matroska
Format version              : Version 4
File size                   : 809 MiB
Duration                    : 3 min 17 s
Overall bit rate mode       : Variable
Overall bit rate            : 34.3 Mb/s
Frame rate                  : 25.000 FPS
Encoded date                : 2024-03-30 09:16:56 UTC
Writing application         : mkvmerge v51.0.0 ('I Wish') 64-bit
Writing library             : libebml v1.4.0 + libmatroska v1.6.2

Video
ID                          : 1
Format                      : HEVC
Format/Info                 : High Efficiency Video Coding
Format profile              : Main 10@L5@Main
Codec ID                    : V_MPEGH/ISO/HEVC
Duration                    : 3 min 17 s
Bit rate                    : 33.2 Mb/s
Width                       : 3 840 pixels
Height                      : 2 160 pixels
Display aspect ratio        : 16:9
Frame rate mode             : Constant
Frame rate                  : 25.000 FPS
Color space                 : YUV
Chroma subsampling          : 4:2:0
Bit depth                   : 10 bits
Bits/(Pixel*Frame)          : 0.160
Stream size                 : 784 MiB (97%)
Default                     : No
Forced                      : No
Color range                 : Limited

Audio
ID                          : 2
Format                      : FLAC
Format/Info                 : Free Lossless Audio Codec
Codec ID                    : A_FLAC
Duration                    : 3 min 14 s
Bit rate mode               : Variable
Bit rate                    : 1 088 kb/s
Channel(s)                  : 2 channels
Channel layout              : L R
Sampling rate               : 48.0 kHz
Frame rate                  : 11.719 FPS (4096 SPF)
Bit depth                   : 16 bits
Compression mode            : Lossless
Stream size                 : 25.2 MiB (3%)
Writing library             : libFLAC 1.4.2 (2022-10-22)
Language                    : English
Default                     : Yes
Forced                      : No
MD5 of the unencoded conten : CF828CB9DC8C7A6DF0EF02DFD0891F4B

</pre>
</div></div>
</div><br>
<br>
<div class="bbCodeBlock bbCodeVfcHH HiddenContent">
<div class="attribution type">Hidden Content:</div>
<blockquote>You must reply before you can see the hidden data contained here.</blockquote>
</div>
<div class="messageTextEndMarker">&nbsp;</div>
</blockquote>
</article>]]></description>
                <author><![CDATA[thankstome]]></author>
                </item>

                </channel></rss>